<?xml version="1.0" encoding="UTF-8"?>
<!-- Created with Inkscape (http://www.inkscape.org/) -->
<svg width="320.76mm" height="138.26mm" version="1.1" viewBox="0 0 288.68 124.43" xmlns="http://www.w3.org/2000/svg" xmlns:cc="http://creativecommons.org/ns#" xmlns:dc="http://purl.org/dc/elements/1.1/" xmlns:rdf="http://www.w3.org/1999/02/22-rdf-syntax-ns#">
 <title>P-220328</title>
 <g transform="translate(45.499 -184.89)">
  <g stroke-width="0">
   <path d="m-43.699 186.69h285.08v120.83h-285.08z" fill="#41737f" stop-color="#000000"/>
   <path d="m-12.205 196.25h221.37c13.447 0 24.272 10.825 24.272 24.272v53.836c0 13.447-10.825 24.272-24.272 24.272h-221.37c-13.447 0-24.272-10.825-24.272-24.272v-53.836c0-13.447 10.825-24.272 24.272-24.272z" fill="#d72727" stop-color="#000000"/>
   <path d="m-16.584 216.68h229.4c8.3915 0 15.147 6.7556 15.147 15.147v30.112c0 8.3915-6.7556 15.147-15.147 15.147h-229.4c-8.3915 0-15.147-6.7556-15.147-15.147v-30.112c0-8.3915 6.7556-15.147 15.147-15.147z" fill="#fff" stop-color="#000000"/>
  </g>
  <g>
   <path d="m-13.777 225.31v43.291h29.346v-9.6409h-14.547v-6.974h14.544v-10.091h-14.544v-6.7191h14.544v-9.951z"/>
   <path d="m49.076 224.97-5.0369 8.1215-4.7377-8.107h-16.814l12.895 22.066-13.005 20.97h15.904l4.8168-7.7664 4.4891 7.6817h16.814l-12.646-21.641 13.226-21.325z" stop-color="#000000"/>
   <path d="m195.11 224.58-5.0369 8.1215-4.7377-8.107h-16.814l12.895 22.066-13.005 20.97h15.904l4.8168-7.7664 4.4891 7.6817h16.814l-12.646-21.641 13.226-21.325z" stop-color="#000000"/>
  </g>
  <g stroke-width="0">
   <path d="m84.713 240.19v12.418h-19.902v-12.418z" stop-color="#000000"/>
   <path d="m92.537 225.05c0.0031 14.173-0.0046 28.345 5.29e-4 42.518h27.701v-11.307c-4.3979 0.39154-8.9665 0.9258-12.647 0.71934v-31.93z" stop-color="#000000"/>
   <path d="m139.36 224.79-17.2 42.738 14.856 0.0997 1.7715-4.8028h14.211l1.6614 4.8095h14.956l-16.6-42.844zm6.766 18.139 3.2375 9.3715h-6.6942z" stop-color="#000000"/>
  </g>
 </g>

</svg>
