<?xml version="1.0" encoding="UTF-8"?> <svg xmlns="http://www.w3.org/2000/svg" id="Layer_1" data-name="Layer 1" width="6.1474in" height="3.0585in" viewBox="0 0 442.6118 220.2117"><defs><style>.cls-1{fill:#347a86;}.cls-2{fill:#f5dc4a;}</style></defs><path d="M78.0116,50.7174v17.53H72.6763v-17.53H66.4378V46.1633H84.25v4.5541Z"></path><path d="M102.7776,68.2477V59.0142h-8.609v9.2335H88.8355V46.1633h5.3331v8.3595h8.609V46.1633h5.3353V68.2477Z"></path><path d="M114.8182,68.2477V46.1633h14.8475v4.4915h-9.7v4.18h9.1687v4.2732h-9.1687v4.5854h10.2621v4.5541Z"></path><path d="M160.7151,68.279a19.8851,19.8851,0,0,1-4.7259.5305,13.6957,13.6957,0,0,1-4.8815-.8427,11.2508,11.2508,0,0,1-3.8377-2.3705,10.7978,10.7978,0,0,1-2.511-3.6649,12.9726,12.9726,0,0,1,.0151-9.5609,10.6807,10.6807,0,0,1,2.5434-3.6649,11.2617,11.2617,0,0,1,3.8054-2.324,13.4216,13.4216,0,0,1,4.7086-.81,14.4675,14.4675,0,0,1,4.8663.7953,10.0683,10.0683,0,0,1,3.65,2.136l-3.3689,3.8367a5.8137,5.8137,0,0,0-2.0593-1.4813,6.975,6.975,0,0,0-2.9-.577,6.4423,6.4423,0,0,0-2.5888.5143,6.25,6.25,0,0,0-2.0593,1.4349,6.5308,6.5308,0,0,0-1.3571,2.1835,7.67,7.67,0,0,0-.4819,2.7606,8.6228,8.6228,0,0,0,.4365,2.807,6.0075,6.0075,0,0,0,1.2944,2.2,5.8911,5.8911,0,0,0,2.12,1.4348,7.6134,7.6134,0,0,0,2.8869.5143,10.76,10.76,0,0,0,1.7763-.14,6.6119,6.6119,0,0,0,1.56-.4517V59.5134H155.395V55.2088h9.1081V66.9069A16.9958,16.9958,0,0,1,160.7151,68.279Z"></path><path d="M194.0426,57.1115a12.3218,12.3218,0,0,1-.9054,4.7886,10.8744,10.8744,0,0,1-2.511,3.7113,11.1843,11.1843,0,0,1-3.82,2.3867,14.0682,14.0682,0,0,1-9.5923,0,11.2213,11.2213,0,0,1-3.8053-2.3867,10.8744,10.8744,0,0,1-2.511-3.7113,12.3218,12.3218,0,0,1-.9054-4.7886,12.1705,12.1705,0,0,1,.9054-4.7874,10.4639,10.4639,0,0,1,2.511-3.6336,11.2124,11.2124,0,0,1,3.8053-2.3089,14.5976,14.5976,0,0,1,9.5923,0,11.1776,11.1776,0,0,1,3.82,2.3089,10.4639,10.4639,0,0,1,2.511,3.6336A12.1705,12.1705,0,0,1,194.0426,57.1115Zm-5.7091,0a7.5935,7.5935,0,0,0-.4667-2.6817,6.46,6.46,0,0,0-1.2944-2.1371,5.98,5.98,0,0,0-1.9967-1.4035,6.3143,6.3143,0,0,0-2.5736-.5143,6.1389,6.1389,0,0,0-4.5552,1.9178,6.1184,6.1184,0,0,0-1.2944,2.1371,8.2748,8.2748,0,0,0,.0173,5.4423,6.4864,6.4864,0,0,0,1.2944,2.1684,5.8784,5.8784,0,0,0,1.9794,1.4187,6.6092,6.6092,0,0,0,5.117,0,6.071,6.071,0,0,0,1.9945-1.4187,6.419,6.419,0,0,0,1.3117-2.1684A7.9062,7.9062,0,0,0,188.3335,57.1115Z"></path><path d="M222.7393,57.1115a12.3218,12.3218,0,0,1-.9054,4.7886,10.8744,10.8744,0,0,1-2.511,3.7113,11.1833,11.1833,0,0,1-3.82,2.3867,14.0682,14.0682,0,0,1-9.5923,0,11.2223,11.2223,0,0,1-3.8053-2.3867,10.8744,10.8744,0,0,1-2.511-3.7113,12.3218,12.3218,0,0,1-.9054-4.7886,12.1705,12.1705,0,0,1,.9054-4.7874,10.4639,10.4639,0,0,1,2.511-3.6336,11.2134,11.2134,0,0,1,3.8053-2.3089,14.5976,14.5976,0,0,1,9.5923,0,11.1766,11.1766,0,0,1,3.82,2.3089,10.4639,10.4639,0,0,1,2.511,3.6336A12.1705,12.1705,0,0,1,222.7393,57.1115Zm-5.7091,0a7.5935,7.5935,0,0,0-.4667-2.6817,6.458,6.458,0,0,0-1.2944-2.1371,5.98,5.98,0,0,0-1.9967-1.4035,6.314,6.314,0,0,0-2.5736-.5143,6.1389,6.1389,0,0,0-4.5552,1.9178,6.1184,6.1184,0,0,0-1.2944,2.1371,8.2748,8.2748,0,0,0,.0173,5.4423,6.4864,6.4864,0,0,0,1.2944,2.1684,5.8784,5.8784,0,0,0,1.9794,1.4187,6.6092,6.6092,0,0,0,5.117,0,6.071,6.071,0,0,0,1.9945-1.4187,6.419,6.419,0,0,0,1.3117-2.1684A7.9062,7.9062,0,0,0,217.03,57.1115Z"></path><path d="M249.0331,57.1428A10.8765,10.8765,0,0,1,247.957,62.15a10.1024,10.1024,0,0,1-2.8373,3.4618,11.8252,11.8252,0,0,1-3.9782,1.9967,16.09,16.09,0,0,1-4.49.64H228.416V46.1633h7.9845a19.7612,19.7612,0,0,1,4.6157.5457,11.5684,11.5684,0,0,1,4.056,1.81,9.2555,9.2555,0,0,1,2.87,3.384A11.36,11.36,0,0,1,249.0331,57.1428Zm-5.5513,0a6.9785,6.9785,0,0,0-.6094-3.103,5.2243,5.2243,0,0,0-1.6207-1.9653,6.4922,6.4922,0,0,0-2.3078-1.0448,11.3844,11.3844,0,0,0-2.6687-.3123h-2.6515V63.6309h2.5283a11.4771,11.4771,0,0,0,2.76-.3273,6.5306,6.5306,0,0,0,2.34-1.0762,5.3306,5.3306,0,0,0,1.6207-1.9966A7,7,0,0,0,243.4818,57.1428Z"></path><path d="M269.9311,50.7174v4.5541h8.5464V59.67h-8.5464v8.5777h-5.27V46.1633h14.5342v4.5541Z"></path><path d="M307.7987,57.1115a12.3218,12.3218,0,0,1-.9054,4.7886,10.8744,10.8744,0,0,1-2.511,3.7113,11.1838,11.1838,0,0,1-3.82,2.3867,14.0679,14.0679,0,0,1-9.5922,0,11.2213,11.2213,0,0,1-3.8053-2.3867,10.8744,10.8744,0,0,1-2.511-3.7113,12.3218,12.3218,0,0,1-.9054-4.7886,12.1705,12.1705,0,0,1,.9054-4.7874,10.4639,10.4639,0,0,1,2.511-3.6336,11.2124,11.2124,0,0,1,3.8053-2.3089,14.5973,14.5973,0,0,1,9.5922,0,11.1771,11.1771,0,0,1,3.82,2.3089,10.4639,10.4639,0,0,1,2.511,3.6336A12.1705,12.1705,0,0,1,307.7987,57.1115Zm-5.7091,0a7.5912,7.5912,0,0,0-.4668-2.6817,6.4578,6.4578,0,0,0-1.2943-2.1371,5.98,5.98,0,0,0-1.9967-1.4035,6.3143,6.3143,0,0,0-2.5736-.5143,6.1389,6.1389,0,0,0-4.5552,1.9178,6.1169,6.1169,0,0,0-1.2944,2.1371,8.2748,8.2748,0,0,0,.0173,5.4423,6.4864,6.4864,0,0,0,1.2944,2.1684A5.8784,5.8784,0,0,0,293.2,63.4592a6.6092,6.6092,0,0,0,5.117,0,6.071,6.071,0,0,0,1.9945-1.4187,6.4172,6.4172,0,0,0,1.3116-2.1684A7.904,7.904,0,0,0,302.09,57.1115Z"></path><path d="M336.4954,57.1115A12.3218,12.3218,0,0,1,335.59,61.9a10.8744,10.8744,0,0,1-2.511,3.7113,11.1838,11.1838,0,0,1-3.82,2.3867,14.0679,14.0679,0,0,1-9.5922,0,11.2213,11.2213,0,0,1-3.8053-2.3867A10.8744,10.8744,0,0,1,313.35,61.9a12.3218,12.3218,0,0,1-.9054-4.7886,12.1705,12.1705,0,0,1,.9054-4.7874,10.4639,10.4639,0,0,1,2.511-3.6336,11.2124,11.2124,0,0,1,3.8053-2.3089,14.5973,14.5973,0,0,1,9.5922,0,11.1771,11.1771,0,0,1,3.82,2.3089,10.4639,10.4639,0,0,1,2.511,3.6336A12.1705,12.1705,0,0,1,336.4954,57.1115Zm-5.7091,0A7.5912,7.5912,0,0,0,330.32,54.43a6.4578,6.4578,0,0,0-1.2943-2.1371,5.98,5.98,0,0,0-1.9967-1.4035,6.3143,6.3143,0,0,0-2.5736-.5143A6.1389,6.1389,0,0,0,319.9,52.2927a6.1184,6.1184,0,0,0-1.2944,2.1371,8.2748,8.2748,0,0,0,.0173,5.4423,6.4864,6.4864,0,0,0,1.2944,2.1684,5.8784,5.8784,0,0,0,1.9794,1.4187,6.6092,6.6092,0,0,0,5.117,0,6.071,6.071,0,0,0,1.9945-1.4187,6.4172,6.4172,0,0,0,1.3116-2.1684A7.904,7.904,0,0,0,330.7863,57.1115Z"></path><path d="M362.7892,57.1428a10.8765,10.8765,0,0,1-1.0761,5.0068,10.1035,10.1035,0,0,1-2.8373,3.4618,11.8252,11.8252,0,0,1-3.9782,1.9967,16.09,16.09,0,0,1-4.49.64h-8.2351V46.1633h7.9845a19.7618,19.7618,0,0,1,4.6157.5457,11.5684,11.5684,0,0,1,4.056,1.81,9.2555,9.2555,0,0,1,2.87,3.384A11.36,11.36,0,0,1,362.7892,57.1428Zm-5.5514,0a6.9785,6.9785,0,0,0-.6093-3.103,5.2243,5.2243,0,0,0-1.6207-1.9653A6.4922,6.4922,0,0,0,352.7,51.03a11.3846,11.3846,0,0,0-2.6688-.3123H347.38V63.6309h2.5283a11.4756,11.4756,0,0,0,2.7594-.3273,6.5311,6.5311,0,0,0,2.34-1.0762,5.3306,5.3306,0,0,0,1.6207-1.9966A7,7,0,0,0,357.2378,57.1428Z"></path><path d="M86.834,99.7147a9.1068,9.1068,0,0,1-1.357,1.5926,8.8616,8.8616,0,0,1-1.8389,1.32,10.3073,10.3073,0,0,1-2.31.9032,10.7672,10.7672,0,0,1-2.76.3328,12.0353,12.0353,0,0,1-4.6178-.873,10.8718,10.8718,0,0,1-3.6476-2.418,10.9912,10.9912,0,0,1-2.3878-3.6649,12.3058,12.3058,0,0,1-.8579-4.6481,12.0788,12.0788,0,0,1,.8752-4.6481,10.9427,10.9427,0,0,1,6.0656-6.0808,11.8162,11.8162,0,0,1,4.57-.8741,11.381,11.381,0,0,1,4.5854.967,9.4589,9.4589,0,0,1,1.8714,1.1021,6.4261,6.4261,0,0,1,1.4024,1.4565l-1.8714,1.3721a5.5842,5.5842,0,0,0-.9183-1.061,6.3025,6.3025,0,0,0-1.3571-.9356,8.52,8.52,0,0,0-1.7006-.6548,7.5515,7.5515,0,0,0-1.9816-.2507,9.1462,9.1462,0,0,0-3.8507.778,8.6871,8.6871,0,0,0-2.8869,2.0982,9.2025,9.2025,0,0,0-1.8087,3.0641A10.8139,10.8139,0,0,0,69.428,92.26a10.57,10.57,0,0,0,.64,3.6692,9.3445,9.3445,0,0,0,1.826,3.062,8.5964,8.5964,0,0,0,2.8848,2.0982,9.0765,9.0765,0,0,0,3.82.7779,8.6405,8.6405,0,0,0,3.62-.78,6.853,6.853,0,0,0,2.87-2.4936Z"></path><path d="M114.3141,92.26a12.1041,12.1041,0,0,1-.873,4.6481,10.9728,10.9728,0,0,1-6.0656,6.0829,12.4,12.4,0,0,1-9.1406,0,10.9557,10.9557,0,0,1-6.0656-6.0829,12.78,12.78,0,0,1,0-9.2962,10.9436,10.9436,0,0,1,6.0656-6.0808,12.3851,12.3851,0,0,1,9.1406,0,10.9606,10.9606,0,0,1,6.0656,6.0808A12.1193,12.1193,0,0,1,114.3141,92.26Zm-2.37.0151a10.8493,10.8493,0,0,0-.6223-3.6735,9.2115,9.2115,0,0,0-1.8108-3.0685,8.6341,8.6341,0,0,0-2.8848-2.1,9.7454,9.7454,0,0,0-7.641,0,8.6637,8.6637,0,0,0-2.8869,2.1,9.2452,9.2452,0,0,0-1.8087,3.0685,11.123,11.123,0,0,0,0,7.3492,9.04,9.04,0,0,0,1.8087,3.0512,8.7506,8.7506,0,0,0,2.8869,2.0874,9.7708,9.7708,0,0,0,7.641,0,8.72,8.72,0,0,0,2.8848-2.0874,9.0072,9.0072,0,0,0,1.8108-3.0512A10.8532,10.8532,0,0,0,111.9436,92.2747Z"></path><path d="M136.8048,100.028h.0626V81.2185h2.2452v22.0833h-2.807L123.4547,84.3053h-.0626v18.9965h-2.2452V81.2185h2.807Z"></path><path d="M149.3747,103.3018H147.13V81.2185h13.32v1.9956H149.3747v7.6431h10.2945v1.9966H149.3747Z"></path><path d="M169.0561,101.3051h11.8223v1.9967H166.811V81.2185h13.6936v1.9956H169.0561v7.58h10.6986v1.9967H169.0561Z"></path><path d="M189.6733,103.3018h-2.2452V81.2185h6.487a13.742,13.742,0,0,1,3.01.3122,6.7722,6.7722,0,0,1,2.4029,1.0135,4.7871,4.7871,0,0,1,1.5753,1.8238,6.1011,6.1011,0,0,1,.5619,2.7443,5.4078,5.4078,0,0,1-1.6229,3.948,5.69,5.69,0,0,1-1.7784,1.169,7.7446,7.7446,0,0,1-2.2451.5619l6.4567,10.5106h-2.7443L193.4159,92.977h-3.7426Zm0-12.2588h3.9a7.4885,7.4885,0,0,0,4.1792-.981,3.3164,3.3164,0,0,0,1.465-2.95,3.8244,3.8244,0,0,0-.404-1.8389,3.3374,3.3374,0,0,0-1.1237-1.2166,5.157,5.157,0,0,0-1.746-.6871,11.058,11.058,0,0,0-2.2776-.2183h-3.9933Z"></path><path d="M210.5108,101.3051h11.8223v1.9967H208.2656V81.2185h13.6936v1.9956H210.5108v7.58h10.6986v1.9967H210.5108Z"></path><path d="M244.5406,100.028h.0627V81.2185h2.2451v22.0833h-2.807L231.1906,84.3053h-.0627v18.9965h-2.2452V81.2185h2.807Z"></path><path d="M273.4556,99.7147a9.1117,9.1117,0,0,1-1.3571,1.5926,8.8616,8.8616,0,0,1-1.8389,1.32,10.3073,10.3073,0,0,1-2.31.9032,10.7667,10.7667,0,0,1-2.76.3328,12.0356,12.0356,0,0,1-4.6178-.873,10.8738,10.8738,0,0,1-3.6476-2.418,10.9912,10.9912,0,0,1-2.3878-3.6649,12.3058,12.3058,0,0,1-.8579-4.6481,12.0788,12.0788,0,0,1,.8752-4.6481,10.9436,10.9436,0,0,1,6.0656-6.0808,11.8162,11.8162,0,0,1,4.57-.8741,11.38,11.38,0,0,1,4.5854.967,9.4589,9.4589,0,0,1,1.8714,1.1021,6.4239,6.4239,0,0,1,1.4024,1.4565l-1.8713,1.3721a5.5886,5.5886,0,0,0-.9184-1.061,6.3,6.3,0,0,0-1.3571-.9356,8.5172,8.5172,0,0,0-1.7006-.6548,7.5513,7.5513,0,0,0-1.9815-.2507,9.1458,9.1458,0,0,0-3.8507.778,8.6865,8.6865,0,0,0-2.887,2.0982,9.2042,9.2042,0,0,0-1.8087,3.0641A10.8139,10.8139,0,0,0,256.05,92.26a10.57,10.57,0,0,0,.64,3.6692,9.3425,9.3425,0,0,0,1.8259,3.062A8.5964,8.5964,0,0,0,261.4,101.089a9.0767,9.0767,0,0,0,3.82.7779,8.6412,8.6412,0,0,0,3.62-.78,6.8527,6.8527,0,0,0,2.87-2.4936Z"></path><path d="M281.721,101.3051h11.8222v1.9967H279.4758V81.2185h13.6936v1.9956H281.721v7.58H292.42v1.9967H281.721Z"></path><path d="M306.4607,130.0371a5.4382,5.4382,0,0,1-2.42-.4892,5.531,5.531,0,0,1-1.6914-1.2657l1.5508-1.5693a3.5068,3.5068,0,0,0,2.7168,1.23,1.9627,1.9627,0,0,0,1.2871-.3535,1.164,1.164,0,0,0,.418-.9375,1.13,1.13,0,0,0-.2481-.7461,1.591,1.591,0,0,0-1.0078-.4072l-1.07-.1377a4.1467,4.1467,0,0,1-2.5215-1.041,3.01,3.01,0,0,1-.7988-2.19,3.1655,3.1655,0,0,1,.2793-1.3369,2.96,2.96,0,0,1,.7988-1.04,3.7028,3.7028,0,0,1,1.2715-.6758,6.1941,6.1941,0,0,1,3.8711.1474,4.3872,4.3872,0,0,1,1.6,1.1348l-1.5684,1.585a3.1379,3.1379,0,0,0-.9375-.73,3.0127,3.0127,0,0,0-1.3886-.2842,2.0455,2.0455,0,0,0-1.18.2764.8931.8931,0,0,0-.3887.7675.9726.9726,0,0,0,.3027.7989,2.1234,2.1234,0,0,0,.9864.3535l1.07.1709a4.5723,4.5723,0,0,1,2.4824,1.0322,2.8766,2.8766,0,0,1,.8067,2.1826,3.6029,3.6029,0,0,1-.2793,1.4287,3.0416,3.0416,0,0,1-.8145,1.1182,3.745,3.745,0,0,1-1.3262.7227A5.84,5.84,0,0,1,306.4607,130.0371Z"></path><path d="M314.6522,129.8506V119.0215h7.371v2.0947h-5.0117v2.2032h4.2969v2.0937h-4.2969v2.3438h5.0117v2.0937Z"></path><path d="M326.0877,129.8506V119.0215h5.1211a3.475,3.475,0,0,1,1.3652.2559,3.0489,3.0489,0,0,1,1.0313.706,3.1145,3.1145,0,0,1,.66,1.0938,4.3808,4.3808,0,0,1,0,2.8164,3.115,3.115,0,0,1-.66,1.0859,3.0325,3.0325,0,0,1-1.0313.7051,3.4573,3.4573,0,0,1-1.3652.2568h-2.7617v3.9092Zm2.3594-5.957H330.93a1.1986,1.1986,0,0,0,.83-.2715,1.0212,1.0212,0,0,0,.3027-.7988V122.14a1.0213,1.0213,0,0,0-.3027-.7989,1.199,1.199,0,0,0-.83-.2714h-2.4824Z"></path><path d="M342.7986,121.1162v8.7344h-2.3593v-8.7344h-2.9317v-2.0947H345.73v2.0947Z"></path><path d="M349.4842,130.0225a1.369,1.369,0,0,1-1.0313-.35,1.2384,1.2384,0,0,1-.3339-.8926V128.47a1.2391,1.2391,0,0,1,.3339-.8916,1.7,1.7,0,0,1,2.0625,0,1.2387,1.2387,0,0,1,.334.8916v.3106a1.238,1.238,0,0,1-.334.8926A1.3688,1.3688,0,0,1,349.4842,130.0225Z"></path><path d="M368.1326,129.8506h-7.664v-2.125l3.3359-2.8555q.4482-.3867.76-.705a3.9178,3.9178,0,0,0,.5039-.6211,2.2245,2.2245,0,0,0,.2793-.5977,2.28,2.28,0,0,0,.0859-.6357v-.2168a1.1294,1.1294,0,0,0-.125-.544,1.1994,1.1994,0,0,0-.3242-.3867,1.4167,1.4167,0,0,0-.459-.2334,1.7743,1.7743,0,0,0-.5195-.0771,1.6839,1.6839,0,0,0-.6739.124,1.6186,1.6186,0,0,0-.498.333,1.9246,1.9246,0,0,0-.3477.4814,2.6219,2.6219,0,0,0-.2168.5811l-2.0332-.7754a4.6489,4.6489,0,0,1,.5118-1.0625,3.569,3.569,0,0,1,.8144-.8848,3.7838,3.7838,0,0,1,1.1563-.5966,4.8211,4.8211,0,0,1,1.5039-.2178,4.6141,4.6141,0,0,1,1.5683.248,3.4217,3.4217,0,0,1,1.1563.6836,2.8975,2.8975,0,0,1,.7207,1.0313,3.3338,3.3338,0,0,1,.248,1.2959,3.3734,3.3734,0,0,1-.2324,1.2724,4.4818,4.4818,0,0,1-.6289,1.0782,6.7743,6.7743,0,0,1-.9219.9541q-.53.45-1.1035.915l-2.0156,1.582h5.1191Z"></path><path d="M379.4588,129.8506h-7.6641v-2.125l3.336-2.8555q.4482-.3867.76-.705a3.9122,3.9122,0,0,0,.5039-.6211,2.2184,2.2184,0,0,0,.2793-.5977,2.2766,2.2766,0,0,0,.086-.6357v-.2168a1.1294,1.1294,0,0,0-.125-.544,1.2006,1.2006,0,0,0-.3242-.3867,1.4177,1.4177,0,0,0-.459-.2334,1.775,1.775,0,0,0-.52-.0771,1.6834,1.6834,0,0,0-.6738.124,1.6186,1.6186,0,0,0-.498.333,1.9246,1.9246,0,0,0-.3477.4814,2.6219,2.6219,0,0,0-.2168.5811l-2.0332-.7754a4.6486,4.6486,0,0,1,.5117-1.0625,3.5694,3.5694,0,0,1,.8145-.8848,3.7844,3.7844,0,0,1,1.1562-.5966,4.8211,4.8211,0,0,1,1.5039-.2178,4.6143,4.6143,0,0,1,1.5684.248,3.4212,3.4212,0,0,1,1.1562.6836,2.8977,2.8977,0,0,1,.7208,1.0313,3.3338,3.3338,0,0,1,.248,1.2959,3.3734,3.3734,0,0,1-.2324,1.2724,4.4884,4.4884,0,0,1-.6289,1.0782,6.7743,6.7743,0,0,1-.9219.9541q-.53.45-1.1035.915l-2.0156,1.582h5.1191Z"></path><path d="M382.7947,126.0654v-1.8613h10.9844v1.8613Z"></path><path d="M404.9022,129.8506h-7.6641v-2.125l3.3359-2.8555q.4484-.3867.76-.705a3.9178,3.9178,0,0,0,.5039-.6211,2.2184,2.2184,0,0,0,.2793-.5977,2.28,2.28,0,0,0,.0859-.6357v-.2168a1.1294,1.1294,0,0,0-.125-.544,1.1994,1.1994,0,0,0-.3242-.3867,1.4157,1.4157,0,0,0-.459-.2334,1.7743,1.7743,0,0,0-.5195-.0771,1.6834,1.6834,0,0,0-.6738.124,1.62,1.62,0,0,0-.4981.333,1.9268,1.9268,0,0,0-.3476.4814,2.617,2.617,0,0,0-.2168.5811l-2.0332-.7754a4.6444,4.6444,0,0,1,.5117-1.0625,3.5709,3.5709,0,0,1,.8144-.8848,3.785,3.785,0,0,1,1.1563-.5966,4.8211,4.8211,0,0,1,1.5039-.2178,4.6147,4.6147,0,0,1,1.5684.248,3.4222,3.4222,0,0,1,1.1562.6836,2.8962,2.8962,0,0,1,.7207,1.0313,3.3339,3.3339,0,0,1,.2481,1.2959,3.3734,3.3734,0,0,1-.2325,1.2724,4.4818,4.4818,0,0,1-.6289,1.0782,6.7678,6.7678,0,0,1-.9218.9541q-.53.45-1.1036.915l-2.0156,1.582h5.1192Z"></path><path d="M412.908,129.8506v-2.0781h-4.7617v-2.002l4.2187-6.749h2.7618v6.9346h1.3652v1.8164h-1.3652v2.0781Zm-2.9-3.8945h2.9v-4.5293h-.1543Z"></path><path class="cls-1" d="M326.3917,112.8569H302.6284v-6.59l10.3423-8.851q1.3948-1.2034,2.3573-2.19a12.3608,12.3608,0,0,0,1.5635-1.9236,6.6738,6.6738,0,0,0,1.13-3.8245v-.6733a3.5386,3.5386,0,0,0-.3848-1.684,3.6929,3.6929,0,0,0-1.0106-1.2021,4.3935,4.3935,0,0,0-1.419-.7215,5.5324,5.5324,0,0,0-1.6111-.2409,5.2405,5.2405,0,0,0-2.0929.3854,4.9086,4.9086,0,0,0-1.5394,1.0335,5.9529,5.9529,0,0,0-1.0823,1.4912,8.3828,8.3828,0,0,0-.6733,1.8044l-6.3016-2.4054a14.5421,14.5421,0,0,1,1.587-3.2957A11.1138,11.1138,0,0,1,306.02,81.228a11.6636,11.6636,0,0,1,3.5836-1.8514,15.0242,15.0242,0,0,1,4.6664-.6745,14.2019,14.2019,0,0,1,4.8585.77,10.6027,10.6027,0,0,1,3.5835,2.1176,8.9586,8.9586,0,0,1,2.2369,3.198,11.0028,11.0028,0,0,1,.0481,7.9621,13.79,13.79,0,0,1-1.9483,3.3426,20.597,20.597,0,0,1-2.862,2.9583q-1.6361,1.3968-3.4155,2.8392l-6.2534,4.9061h15.8741Z"></path><path class="cls-1" d="M343.9313,113.4339q-6.5913,0-9.7653-4.57T330.9908,96.068q0-8.2246,3.1752-12.7959,3.1746-4.5694,9.7653-4.57t9.7652,4.57q3.1746,4.5712,3.1746,12.7959,0,8.2265-3.1746,12.7959Q350.521,113.4352,343.9313,113.4339Zm0-6.1094a4.1012,4.1012,0,0,0,3.9924-2.1164,13.0938,13.0938,0,0,0,1.1064-5.9649V92.894a13.1025,13.1025,0,0,0-1.1064-5.9661,4.8245,4.8245,0,0,0-7.9855,0,13.0945,13.0945,0,0,0-1.1064,5.9661v6.3492a13.0858,13.0858,0,0,0,1.1064,5.9649A4.101,4.101,0,0,0,343.9313,107.3245Z"></path><path class="cls-1" d="M385.6183,112.8569H361.8551v-6.59l10.3422-8.851q1.3949-1.2034,2.3561-2.19a12.1169,12.1169,0,0,0,1.5635-1.9236,6.6577,6.6577,0,0,0,1.1322-3.8245v-.6733a3.5458,3.5458,0,0,0-.3854-1.684,3.7266,3.7266,0,0,0-1.0094-1.2021,4.4365,4.4365,0,0,0-1.419-.7215,5.5424,5.5424,0,0,0-1.6117-.2409,5.2415,5.2415,0,0,0-2.0935.3854,4.9293,4.9293,0,0,0-1.5394,1.0335,5.9508,5.9508,0,0,0-1.0817,1.4912,8.4225,8.4225,0,0,0-.6745,1.8044l-6.3022-2.4054A14.6208,14.6208,0,0,1,362.72,83.97a11.1073,11.1073,0,0,1,2.5271-2.7415,11.6637,11.6637,0,0,1,3.5824-1.8514,15.0215,15.0215,0,0,1,4.6664-.6745,14.203,14.203,0,0,1,4.8591.77,10.6142,10.6142,0,0,1,3.5847,2.1176,8.9856,8.9856,0,0,1,2.2357,3.198,10.9871,10.9871,0,0,1,.0482,7.9621,13.7762,13.7762,0,0,1-1.949,3.3426,20.5008,20.5008,0,0,1-2.862,2.9583q-1.6334,1.3968-3.4137,2.8392l-6.254,4.9061h15.8735Z"></path><path class="cls-1" d="M393.2481,112.8569v-5.82h9.0437V84.5236h-.4324l-6.831,8.9474L390.41,89.8634,398.4433,79.28H409.507v27.7564h7.12v5.82Z"></path><path d="M72.369,158.2969a4.9776,4.9776,0,0,1-1.8868-.3408,3.7748,3.7748,0,0,1-1.4375-1.0215,4.6358,4.6358,0,0,1-.916-1.6895,7.7455,7.7455,0,0,1-.3183-2.3388,8.0627,8.0627,0,0,1,.3183-2.37,4.8385,4.8385,0,0,1,.916-1.7412,3.8779,3.8779,0,0,1,1.4375-1.0673,4.7113,4.7113,0,0,1,1.8868-.3633,4.2756,4.2756,0,0,1,2.3613.6054,4.1813,4.1813,0,0,1,1.5,1.8321l-1.7129.9082a2.4045,2.4045,0,0,0-.74-1.1426,2.1271,2.1271,0,0,0-1.4082-.4316,2.2336,2.2336,0,0,0-1.7793.7568,3.1264,3.1264,0,0,0-.66,2.12v1.666a3.06,3.06,0,0,0,.66,2.1123,2.2678,2.2678,0,0,0,1.7793.7344A2.17,2.17,0,0,0,73.83,156.04a2.7834,2.7834,0,0,0,.8242-1.1954l1.6211.9532a4.662,4.662,0,0,1-1.5293,1.84A4.0874,4.0874,0,0,1,72.369,158.2969Z"></path><path d="M85.451,153.6475H81.0447v4.4678h-2V147.5459h2v4.33H85.451v-4.33h1.998v10.5694H85.451Z"></path><path d="M97.535,158.1153l-.8477-2.6954H92.9315l-.8321,2.6954H90.07l3.543-10.5694h2.4844l3.5117,10.5694Zm-2.6953-8.753h-.0762l-1.3477,4.3467h2.7871Z"></path><path d="M104.2283,158.1153h-2V147.5459H107a3.5341,3.5341,0,0,1,1.3008.2266,2.6381,2.6381,0,0,1,.9785.6592,3.04,3.04,0,0,1,.6191,1.0371,3.9239,3.9239,0,0,1,.2208,1.3476,3.4711,3.4711,0,0,1-.4922,1.878,2.6868,2.6868,0,0,1-1.4766,1.121l2.166,4.3H108.09l-1.9688-4.0733h-1.8926Zm2.5742-5.7549a1.2806,1.2806,0,0,0,.9082-.31,1.1506,1.1506,0,0,0,.334-.8857v-.6973a1.1257,1.1257,0,0,0-.334-.8779,1.3,1.3,0,0,0-.9082-.3028h-2.5742V152.36Z"></path><path d="M117.1307,149.3174v8.7979h-2v-8.7979h-2.9981v-1.7715h7.9961v1.7715Z"></path><path d="M122.3084,158.1153v-1.6045h1.3926v-7.3594h-1.3926v-1.6055h4.8008v1.6055H125.701v7.3594h1.4082v1.6045Z"></path><path d="M133.242,152.6944l-1.09-2.1954h-.045v7.6163h-1.8945V147.5459H132.41l3.18,5.4209,1.09,2.1963h.0449v-7.6172h1.8926v10.5694h-2.1953Z"></path><path d="M148.9,156.48H148.84a2.0091,2.0091,0,0,1-.8555,1.2949,3.1923,3.1923,0,0,1-1.916.5225,4.2664,4.2664,0,0,1-1.7344-.3486,3.7429,3.7429,0,0,1-1.377-1.0372,5.0129,5.0129,0,0,1-.9179-1.7031,7.5682,7.5682,0,0,1-.3321-2.3476,7.461,7.461,0,0,1,.34-2.3545,4.8687,4.8687,0,0,1,.9629-1.7178,4.0881,4.0881,0,0,1,1.4824-1.06,4.9159,4.9159,0,0,1,1.9238-.3633,4.5089,4.5089,0,0,1,2.4239.6211,4.2749,4.2749,0,0,1,1.5742,1.7861l-1.6211.9541a2.843,2.843,0,0,0-.8555-1.1357,2.3652,2.3652,0,0,0-1.5215-.4541,2.52,2.52,0,0,0-1.8847.7187,2.9217,2.9217,0,0,0-.7051,2.1279v1.6963a2.9069,2.9069,0,0,0,.7129,2.1192,2.5448,2.5448,0,0,0,1.9082.7275,3.2367,3.2367,0,0,0,.8769-.1143,2.1323,2.1323,0,0,0,.7129-.34,1.7365,1.7365,0,0,0,.4844-.5605,1.6216,1.6216,0,0,0,.1816-.7872v-.6816h-2.0742V152.36h3.9961v5.7549H148.9Z"></path><path d="M162.785,149.3174v8.7979h-2v-8.7979h-2.9981v-1.7715h7.9961v1.7715Z"></path><path d="M174.8826,153.6475h-4.4062v4.4678h-2V147.5459h2v4.33h4.4062v-4.33h1.9981v10.5694h-1.9981Z"></path><path d="M180.4256,158.1153V147.5459H187.39v1.7715h-4.9668v2.5586h4.3926v1.7715h-4.3926v2.6963H187.39v1.7715Z"></path><path d="M201.9412,156.48h-.0605a2.002,2.002,0,0,1-.8555,1.2949,3.1881,3.1881,0,0,1-1.916.5225,4.2637,4.2637,0,0,1-1.7324-.3486,3.7475,3.7475,0,0,1-1.3789-1.0372,5.0449,5.0449,0,0,1-.9161-1.7031,8.3494,8.3494,0,0,1,.0079-4.7021,4.8347,4.8347,0,0,1,.9609-1.7178,4.0793,4.0793,0,0,1,1.4844-1.06,4.9156,4.9156,0,0,1,1.9238-.3633,4.5015,4.5015,0,0,1,2.4219.6211,4.2613,4.2613,0,0,1,1.5742,1.7861l-1.6192.9541a2.8428,2.8428,0,0,0-.8554-1.1357,2.3689,2.3689,0,0,0-1.5215-.4541,2.5243,2.5243,0,0,0-1.8867.7187,2.9293,2.9293,0,0,0-.7031,2.1279v1.6963a2.9063,2.9063,0,0,0,.7109,2.1192,2.5478,2.5478,0,0,0,1.9082.7275,3.2616,3.2616,0,0,0,.8789-.1143,2.1219,2.1219,0,0,0,.7109-.34,1.7365,1.7365,0,0,0,.4844-.5605,1.6217,1.6217,0,0,0,.1817-.7872v-.6816H199.67V152.36h3.9981v5.7549h-1.7266Z"></path><path d="M207.0447,158.1153V147.5459h1.9981v8.7979h4.164v1.7715Z"></path><path d="M219.5818,158.2969a4.9421,4.9421,0,0,1-1.8925-.3486,3.7551,3.7551,0,0,1-1.4453-1.045,4.9772,4.9772,0,0,1-.9317-1.7109,8.4934,8.4934,0,0,1,0-4.7168,4.9806,4.9806,0,0,1,.9317-1.7187,3.7759,3.7759,0,0,1,1.4453-1.045,5.3259,5.3259,0,0,1,3.7851,0,3.84,3.84,0,0,1,1.4551,1.045,4.8545,4.8545,0,0,1,.9316,1.7187,8.7376,8.7376,0,0,1,0,4.7168,4.85,4.85,0,0,1-.9316,1.7109,3.8183,3.8183,0,0,1-1.4551,1.045A4.9282,4.9282,0,0,1,219.5818,158.2969Zm0-1.7715a2.3053,2.3053,0,0,0,1.8106-.7568,3.0825,3.0825,0,0,0,.6738-2.1211v-1.6348a3.0815,3.0815,0,0,0-.6738-2.12,2.5419,2.5419,0,0,0-3.6192,0,3.0815,3.0815,0,0,0-.6738,2.12v1.6348a3.0825,3.0825,0,0,0,.6738,2.1211A2.3042,2.3042,0,0,0,219.5818,156.5254Z"></path><path d="M227.2752,147.5459h4.8906a3.2949,3.2949,0,0,1,1.1739.1973,2.572,2.572,0,0,1,.8867.5449,2.272,2.272,0,0,1,.5527.8555,3.1863,3.1863,0,0,1,.19,1.1133,2.885,2.885,0,0,1-.16,1.0214,2.0021,2.0021,0,0,1-.4238.69,1.7336,1.7336,0,0,1-.6055.4082,2.1163,2.1163,0,0,1-.7051.1523v.09a2.3425,2.3425,0,0,1,.75.1367,2.202,2.202,0,0,1,.7422.4316,2.3992,2.3992,0,0,1,.5684.7569,2.59,2.59,0,0,1,.2265,1.1435,3.3886,3.3886,0,0,1-.205,1.1885,2.98,2.98,0,0,1-.5664.9619,2.6569,2.6569,0,0,1-.8633.6426,2.5266,2.5266,0,0,1-1.09.2354h-5.3613Zm1.998,4.4063h2.4688a1.16,1.16,0,0,0,.8477-.295,1.0971,1.0971,0,0,0,.3027-.8261v-.4688a1.0936,1.0936,0,0,0-.3027-.8252,1.1646,1.1646,0,0,0-.8477-.2959h-2.4688Zm0,4.4668H232.06a1.2585,1.2585,0,0,0,.8925-.295,1.1081,1.1081,0,0,0,.3184-.8554v-.5157a1.1315,1.1315,0,0,0-.3184-.8623,1.24,1.24,0,0,0-.8925-.3037h-2.7872Z"></path><path d="M244.7029,158.1153l-.8476-2.6954h-3.7559l-.832,2.6954h-2.0293l3.543-10.5694h2.4843l3.5118,10.5694Zm-2.6953-8.753h-.0761l-1.3477,4.3467h2.7871Z"></path><path d="M249.3982,158.1153V147.5459h1.9981v8.7979H255.56v1.7715Z"></path><path d="M264.9783,158.1153H262.98V147.5459H267.75a3.5516,3.5516,0,0,1,1.3027.2266,2.6463,2.6463,0,0,1,.9766.6592,3.0141,3.0141,0,0,1,.6211,1.0371,3.9244,3.9244,0,0,1,.2188,1.3476,3.4711,3.4711,0,0,1-.4922,1.878,2.6868,2.6868,0,0,1-1.4766,1.121l2.166,4.3H268.84l-1.9668-4.0733h-1.8946Zm2.5742-5.7549a1.2827,1.2827,0,0,0,.91-.31,1.1568,1.1568,0,0,0,.332-.8857v-.6973a1.1316,1.1316,0,0,0-.332-.8779,1.3018,1.3018,0,0,0-.91-.3028h-2.5742V152.36Z"></path><path d="M278.0936,158.2969a4.9282,4.9282,0,0,1-1.8926-.3486,3.7484,3.7484,0,0,1-1.4473-1.045,4.977,4.977,0,0,1-.9316-1.7109,8.54,8.54,0,0,1,0-4.7168,4.98,4.98,0,0,1,.9316-1.7187,3.7691,3.7691,0,0,1,1.4473-1.045,5.3259,5.3259,0,0,1,3.7851,0,3.8479,3.8479,0,0,1,1.4532,1.045,4.794,4.794,0,0,1,.9316,1.7187,8.6886,8.6886,0,0,1,0,4.7168,4.79,4.79,0,0,1-.9316,1.7109,3.8264,3.8264,0,0,1-1.4532,1.045A4.9421,4.9421,0,0,1,278.0936,158.2969Zm0-1.7715a2.3042,2.3042,0,0,0,1.8086-.7568,3.0825,3.0825,0,0,0,.6738-2.1211v-1.6348a3.0815,3.0815,0,0,0-.6738-2.12,2.5419,2.5419,0,0,0-3.6192,0,3.0815,3.0815,0,0,0-.6738,2.12v1.6348a3.0825,3.0825,0,0,0,.6738,2.1211A2.3053,2.3053,0,0,0,278.0936,156.5254Z"></path><path d="M291.9334,158.1153l-.8477-2.6954H287.33l-.834,2.6954h-2.0273l3.5429-10.5694h2.4825l3.5136,10.5694Zm-2.6953-8.753h-.0762l-1.3476,4.3467h2.7871Z"></path><path d="M296.6268,147.5459h3.8476a5.0424,5.0424,0,0,1,1.8692.333,3.8157,3.8157,0,0,1,1.4394.9912,4.52,4.52,0,0,1,.9238,1.65,8.3864,8.3864,0,0,1,0,4.6192,4.512,4.512,0,0,1-.9238,1.65,3.8167,3.8167,0,0,1-1.4394.9921,5.0222,5.0222,0,0,1-1.8692.3331h-3.8476Zm3.8476,8.7979a2.4055,2.4055,0,0,0,1.7793-.6592,2.752,2.752,0,0,0,.6582-2.0215v-1.666a2.752,2.752,0,0,0-.6582-2.0215,2.4085,2.4085,0,0,0-1.7793-.6582h-1.8476v7.0264Z"></path><path d="M316.1014,150.5283h-.0606l-.8183,1.6817-2.166,3.997-2.1641-3.997-.8184-1.6817h-.06v7.587h-1.8926V147.5459h2.2559l2.7109,5.1641h.06l2.68-5.1641h2.1661v10.5694h-1.8926Z"></path><path d="M328.08,158.1153l-.8477-2.6954h-3.7558l-.834,2.6954H320.615l3.543-10.5694H326.64l3.5137,10.5694Zm-2.6953-8.753h-.0762l-1.3477,4.3467h2.7872Z"></path><path d="M332.7732,158.1153V147.5459h4.754a3.481,3.481,0,0,1,1.31.2344,2.7842,2.7842,0,0,1,.9922.666,2.9,2.9,0,0,1,.6211,1.0371,4.3427,4.3427,0,0,1,0,2.6738,2.9074,2.9074,0,0,1-.6211,1.0293,2.7858,2.7858,0,0,1-.9922.6661,3.483,3.483,0,0,1-1.31.2343h-2.7559v4.0284Zm1.9981-5.7549h2.5742a1.2827,1.2827,0,0,0,.91-.31,1.1568,1.1568,0,0,0,.332-.8857v-.6973a1.1316,1.1316,0,0,0-.332-.8779,1.3018,1.3018,0,0,0-.91-.3028h-2.5742Z"></path><path d="M68.326,175.9932v-10.57h6.6015v1.5146H70.0369v2.9375h4.3457V171.39H70.0369v4.6035Z"></path><path d="M81.7557,176.1748a4.7515,4.7515,0,0,1-1.8711-.3564,3.8816,3.8816,0,0,1-1.4375-1.044,4.7972,4.7972,0,0,1-.9239-1.7119,8.6663,8.6663,0,0,1,0-4.71,4.8023,4.8023,0,0,1,.9239-1.711,3.895,3.895,0,0,1,1.4375-1.0449,5.0966,5.0966,0,0,1,3.74,0,3.9029,3.9029,0,0,1,1.44,1.0449,4.8037,4.8037,0,0,1,.9238,1.711,8.7151,8.7151,0,0,1,0,4.71,4.7986,4.7986,0,0,1-.9238,1.7119,3.8894,3.8894,0,0,1-1.44,1.044A4.7485,4.7485,0,0,1,81.7557,176.1748Zm0-1.5146a2.8667,2.8667,0,0,0,1.1133-.2129,2.3452,2.3452,0,0,0,.8632-.6162,2.8732,2.8732,0,0,0,.5528-.9805,4.0485,4.0485,0,0,0,.1953-1.3066v-1.6719a4.0491,4.0491,0,0,0-.1953-1.3067,2.8728,2.8728,0,0,0-.5528-.98,2.3441,2.3441,0,0,0-.8632-.6162,3.0377,3.0377,0,0,0-2.2344,0,2.3479,2.3479,0,0,0-.8555.6162,2.8416,2.8416,0,0,0-.5527.98,4.0449,4.0449,0,0,0-.1973,1.3067v1.6719a4.0443,4.0443,0,0,0,.1973,1.3066,2.8421,2.8421,0,0,0,.5527.9805,2.349,2.349,0,0,0,.8555.6162A2.8432,2.8432,0,0,0,81.7557,174.66Z"></path><path d="M91.2205,175.9932H89.51v-10.57h4.5566a2.9551,2.9551,0,0,1,2.2422.8554,3.6962,3.6962,0,0,1,.2949,4.21,2.7607,2.7607,0,0,1-1.5371,1.0518l2.2871,4.4531H95.4451l-2.1211-4.27H91.2205Zm2.7246-5.709a1.4314,1.4314,0,0,0,1.0156-.34,1.2634,1.2634,0,0,0,.3633-.9717v-.7237a1.2668,1.2668,0,0,0-.3633-.9726,1.4306,1.4306,0,0,0-1.0156-.3389H91.2205v3.3467Z"></path><path d="M111.7225,175.9932l-.9551-2.8623h-3.9512l-.9238,2.8623H104.15l3.6055-10.57h2.1484l3.6055,10.57Zm-2.8926-8.9951h-.0762l-1.5293,4.664h3.1192Z"></path><path d="M116.2049,175.9932v-10.57h1.7109v9.0556h4.2989v1.5147Z"></path><path d="M127.865,166.9375v9.0557h-1.7128v-9.0557h-3.1485v-1.5146h8.01v1.5146Z"></path><path d="M133.74,175.9932v-10.57h6.7676v1.5146H135.451v2.9375h4.5879V171.39H135.451v3.0888h5.0566v1.5147Z"></path><path d="M145.49,175.9932h-1.7109v-10.57h4.5566a2.9549,2.9549,0,0,1,2.2422.8554,3.6965,3.6965,0,0,1,.295,4.21,2.7613,2.7613,0,0,1-1.5372,1.0518l2.2872,4.4531h-1.9082l-2.1211-4.27H145.49Zm2.7247-5.709a1.4318,1.4318,0,0,0,1.0156-.34,1.2634,1.2634,0,0,0,.3633-.9717v-.7237a1.2668,1.2668,0,0,0-.3633-.9726,1.431,1.431,0,0,0-1.0156-.3389H145.49v3.3467Z"></path><path d="M157.6033,170.1475l-1.166-2.24h-.0449v8.086h-1.6348v-10.57h1.9063l3.4531,5.8457,1.166,2.24h.0449v-8.0859h1.6368v10.57h-1.9082Z"></path><path d="M173.23,175.9932l-.9551-2.8623H168.324l-.9238,2.8623H165.658l3.6055-10.57h2.1484l3.6055,10.57Zm-2.8926-8.9951h-.0762l-1.5293,4.664h3.1192Z"></path><path d="M180.65,166.9375v9.0557h-1.7109v-9.0557h-3.15v-1.5146h8.0117v1.5146Z"></path><path d="M185.98,175.9932V174.6h1.4375v-7.7832H185.98v-1.3935h4.6035v1.3935h-1.4531V174.6h1.4531v1.3936Z"></path><path d="M196.23,175.9932l-3.4668-10.57h1.7715l1.68,5.2246,1.0156,3.68h.06l1.0293-3.68,1.6817-5.2246h1.7265l-3.5136,10.57Z"></path><path d="M204.3631,175.9932v-10.57h6.7695v1.5146H206.074v2.9375h4.5879V171.39H206.074v3.0888h5.0586v1.5147Z"></path><path d="M219.0369,175.9932v-10.57h4.541a2.9482,2.9482,0,0,1,2.2715.8632,3.7447,3.7447,0,0,1,0,4.6338,2.9479,2.9479,0,0,1-2.2715.8633h-2.83v4.21Zm1.711-5.7246h2.7246a1.435,1.435,0,0,0,1.0156-.3379,1.2535,1.2535,0,0,0,.3633-.9668v-.7207a1.261,1.261,0,0,0-.3633-.9688,1.4392,1.4392,0,0,0-1.0156-.3369h-2.7246Z"></path><path d="M231.3006,175.9932H229.59v-10.57h4.5585a2.9535,2.9535,0,0,1,2.24.8554,3.6874,3.6874,0,0,1,.2949,4.21,2.7476,2.7476,0,0,1-1.5371,1.0518l2.2871,4.4531h-1.9082l-2.1191-4.27h-2.1055Zm2.7266-5.709a1.4266,1.4266,0,0,0,1.0136-.34,1.2634,1.2634,0,0,0,.3633-.9717v-.7237a1.2668,1.2668,0,0,0-.3633-.9726,1.4258,1.4258,0,0,0-1.0136-.3389h-2.7266v3.3467Z"></path><path d="M244.5057,176.1748a4.749,4.749,0,0,1-1.8692-.3564,3.889,3.889,0,0,1-1.4394-1.044,4.7972,4.7972,0,0,1-.9239-1.7119,8.7151,8.7151,0,0,1,0-4.71,4.8023,4.8023,0,0,1,.9239-1.711,3.9025,3.9025,0,0,1,1.4394-1.0449,5.0968,5.0968,0,0,1,3.74,0,3.8967,3.8967,0,0,1,1.4375,1.0449,4.8037,4.8037,0,0,1,.9238,1.711,8.6637,8.6637,0,0,1,0,4.71,4.7986,4.7986,0,0,1-.9238,1.7119,3.8832,3.8832,0,0,1-1.4375,1.044A4.7519,4.7519,0,0,1,244.5057,176.1748Zm0-1.5146a2.8524,2.8524,0,0,0,1.1133-.2129,2.33,2.33,0,0,0,.8632-.6162,2.8422,2.8422,0,0,0,.5528-.9805,4.0471,4.0471,0,0,0,.1972-1.3066v-1.6719a4.0477,4.0477,0,0,0-.1972-1.3067,2.8418,2.8418,0,0,0-.5528-.98,2.3286,2.3286,0,0,0-.8632-.6162,3.0327,3.0327,0,0,0-2.2325,0,2.3317,2.3317,0,0,0-.8554.6162,2.8115,2.8115,0,0,0-.5528.98,3.9939,3.9939,0,0,0-.1972,1.3067v1.6719a3.9933,3.9933,0,0,0,.1972,1.3066,2.8119,2.8119,0,0,0,.5528.9805,2.3329,2.3329,0,0,0,.8554.6162A2.8271,2.8271,0,0,0,244.5057,174.66Z"></path><path d="M255.8475,166.9375v9.0557h-1.711v-9.0557h-3.15v-1.5146h8.0118v1.5146Z"></path><path d="M261.7225,175.9932v-10.57h6.7695v1.5146h-5.0586v2.9375h4.5879V171.39h-4.5879v3.0888h5.0586v1.5147Z"></path><path d="M271.3084,175.9932V174.6h1.4375v-7.7832h-1.4375v-1.3935h4.6035v1.3935h-1.4531V174.6h1.4531v1.3936Z"></path><path d="M281.9686,170.1475l-1.1661-2.24h-.0468v8.086h-1.6348v-10.57h1.9082l3.4531,5.8457,1.166,2.24h.045v-8.0859h1.6347v10.57H285.42Z"></path><path d="M294.158,176.1748a4.8639,4.8639,0,0,1-2.2637-.4844,5.0511,5.0511,0,0,1-1.5976-1.3027l1.1816-1.1055a3.9605,3.9605,0,0,0,1.2324,1.0293,3.3,3.3,0,0,0,1.5372.3487,2.246,2.246,0,0,0,1.5293-.4541,1.5523,1.5523,0,0,0,.5156-1.2266,1.33,1.33,0,0,0-.3633-.9844,2.521,2.521,0,0,0-1.2871-.5449l-.94-.167a4.5356,4.5356,0,0,1-2.3164-1.0146,2.6075,2.6075,0,0,1-.7715-1.9981,2.9712,2.9712,0,0,1,.2637-1.2656,2.6678,2.6678,0,0,1,.7422-.9531,3.4389,3.4389,0,0,1,1.1582-.5977,5.1041,5.1041,0,0,1,1.5293-.2129,4.8092,4.8092,0,0,1,2.0762.416,4.1763,4.1763,0,0,1,1.498,1.2051l-1.1953,1.06a3.1235,3.1235,0,0,0-1-.8486,3.0824,3.0824,0,0,0-1.4687-.3174,2.36,2.36,0,0,0-1.4082.3633,1.2264,1.2264,0,0,0-.5,1.0595,1.1927,1.1927,0,0,0,.4082.9922,2.9794,2.9794,0,0,0,1.2734.4922l.9375.1973a4.42,4.42,0,0,1,2.3242,1.0293,2.6815,2.6815,0,0,1,.7344,1.999,3.437,3.437,0,0,1-.2559,1.3476,2.847,2.847,0,0,1-.75,1.0372,3.4255,3.4255,0,0,1-1.205.666A5.1382,5.1382,0,0,1,294.158,176.1748Z"></path><rect class="cls-2" x="14.3449" y="119.0667" width="279.156" height="11.4872"></rect><rect class="cls-1" x="-39.9504" y="105.0228" width="167.6488" height="11.4872" transform="translate(-66.8924 154.6404) rotate(-90)"></rect><path d="M298.5174,103.583a2.4123,2.4123,0,0,1-.9483-.1865,2.3844,2.3844,0,0,1-.7744-.5156,2.3509,2.3509,0,0,1-.5156-.7862,2.7018,2.7018,0,0,1,0-1.9677,2.37,2.37,0,0,1,.5156-.7862,2.4,2.4,0,0,1,.7744-.5156,2.5039,2.5039,0,0,1,1.8965,0,2.3448,2.3448,0,0,1,1.29,1.3018,2.7018,2.7018,0,0,1,0,1.9677,2.3448,2.3448,0,0,1-1.29,1.3018A2.415,2.415,0,0,1,298.5174,103.583Zm0-.5644a2.0363,2.0363,0,0,0,.6836-.1133,1.62,1.62,0,0,0,.5644-.3359,1.655,1.655,0,0,0,.3838-.54,1.7478,1.7478,0,0,0,.1436-.7265v-.3838a1.7465,1.7465,0,0,0-.1436-.7256,1.6445,1.6445,0,0,0-.3838-.54,1.59,1.59,0,0,0-.5644-.3359,2.1044,2.1044,0,0,0-1.3682,0,1.5874,1.5874,0,0,0-.5635.3359,1.6457,1.6457,0,0,0-.3837.54,1.7309,1.7309,0,0,0-.1446.7256v.3838a1.7322,1.7322,0,0,0,.1446.7265,1.6562,1.6562,0,0,0,.3837.54,1.6171,1.6171,0,0,0,.5635.3359A2.0463,2.0463,0,0,0,298.5174,103.0186Zm-.2764-.6592h-.7676V99.8506h1.2237a.98.98,0,0,1,.7324.2383.83.83,0,0,1,.2275.5957.93.93,0,0,1-.12.4941.7349.7349,0,0,1-.3232.292l.5156.8887h-.8281l-.3838-.7441h-.2764Zm.3-1.3086c.2246,0,.336-.0918.336-.2754v-.084c0-.1845-.1114-.2763-.336-.2763h-.3v.6357Z"></path></svg> 