<?xml version="1.0" encoding="UTF-8"?> <svg xmlns="http://www.w3.org/2000/svg" id="Layer_1" data-name="Layer 1" width="40" height="35.4" viewBox="0 0 40 35.4"><defs><style>.cls-1{fill:#fff;}</style></defs><path class="cls-1" d="M38.38,8.43A4.82,4.82,0,0,0,35,5c-3-.81-15-.81-15-.81S8,4.21,5,5A4.82,4.82,0,0,0,1.62,8.43c-.8,3-.8,9.3-.8,9.3s0,6.28.8,9.29A4.76,4.76,0,0,0,5,30.38c3,.8,15,.8,15,.8s12,0,15-.8A4.76,4.76,0,0,0,38.38,27c.8-3,.8-9.29.8-9.29S39.18,11.45,38.38,8.43Zm-22.3,15V12l10,5.71-10,5.7Z"></path></svg> 